<svg version="1.1" id="Layer_1" xmlns="http://www.w3.org/2000/svg" x="0" y="0" viewBox="0 0 35 35" xml:space="preserve"><style type="text/css">.st1{fill:#fff}</style><circle cx="17.5" cy="17.5" r="17.5" fill="#c11e2a"/><path class="st1" d="M10.9 6.5v3.3s2.4 1.2 7.5 1.2 7.5-1.2 7.5-1.2V6.5c0-1.1-3.1 1.7-3.7 1.7-.6 0-3.4-2-3.8-2s-3.1 2-3.8 2-3.7-2.8-3.7-1.7z"/><path class="st1" d="M10.7 10.3s-2.4 2.3-2.4 2.6c0 .1.2.5.5.8.3.5.7 1 .9 1.6.1.7-.1 2.5-.3 4.2-.1 1.3-.3 2.4-.2 2.9.1 1.1 8.4 8.6 9.2 8.6.7 0 8.9-7.3 9.1-8.6.2-1.3-.6-7.1-.6-7.1.1-.2.4-.7.8-1.2s.8-1.1.8-1.3c0-.3-2.5-2.6-2.5-2.6-4.1 1.5-10.2 1.9-15.3.1zm12.4 6.3l-6.6 2.8c-.1 1.9 3.8 5.5 6.4 1.3 1.3-2.5 2-.2 1.3 1-1.7 4.2-7.4 7.5-10.7 1.7-1.5-2.7-.8-7.6 2-9.4 2.7-1.6 6.9-.9 7.6 2.6zm-5.2-2c-2.6.1-1.9 3.2-1.9 3.2l3.6-1.5s-.3-1.7-1.7-1.7z"/></svg>