<svg width="35" height="35" fill="none" xmlns="http://www.w3.org/2000/svg"><circle cx="17.5" cy="17.5" r="17.5" fill="#2C4C95"/><path d="M11 26.05c.6606 0 1.1173-.0384 1.3698-.1152.2721-.0767.447-.2111.5247-.403.0777-.2111.3347-.5757.3347-1.0939l2.7758-13.8182c0-.5182-.0486-.8828-.1457-1.094-.0972-.2302-.2817-.3838-.5538-.4606-.2526-.0767-.6898-.1151-1.3115-.1151V8H23v.95c-.6218 0-.8505.0384-1.1225.1151-.2526.0768-.4275.2304-.5246.4607-.0778.211-.3348.5757-.3348 1.0939l-2.7758 13.8182c0 .5182-.1793.8828-.1016 1.0939.0972.2111.272.3551.5246.4318.2526.0576.6995.0864 1.3407.0864V27H11v-.95z" fill="#fff"/></svg>