<svg width="35" height="35" fill="none" xmlns="http://www.w3.org/2000/svg"><circle cx="17.5002" cy="17.5" r="17.5" fill="#D7302A"/><path fill-rule="evenodd" clip-rule="evenodd" d="M17.6225 6c-1.105 0-2.0008.9045-2.0008 2.0204v6.4448l-1.5806-4.9701c-.3378-1.0624-1.4646-1.6471-2.5167-1.3059-1.0521.3412-1.631 1.479-1.2932 2.5414l2.0623 6.4847a6.7357 6.7357 0 00-1.2777 3.1244l-3.051-1.6932c-.9685-.5374-2.185-.1803-2.717.7977-.5323.9778-.1787 2.2062.7898 2.7436l6.8101 3.7793C14.0589 27.2213 15.7506 28 17.6225 28c3.2692 0 5.9889-2.3753 6.5592-5.5101l4.5108-7.2402c.5884-.9445.3072-2.1919-.6281-2.7861-.9353-.5942-2.1705-.3102-2.7589.6342l-2.3128 3.7125 2.3492-5.8476c.4154-1.034-.0779-2.2123-1.1018-2.6318-1.0239-.4194-2.1908.0787-2.6061 1.1127l-2.0108 5.005V8.0204C19.6232 6.9045 18.7275 6 17.6225 6zm0 20.4286c2.8239 0 5.113-2.3117 5.113-5.1633 0-2.8516-2.2891-5.1633-5.113-5.1633-2.8239 0-5.1131 2.3117-5.1131 5.1633 0 2.8516 2.2892 5.1633 5.1131 5.1633z" fill="#fff"/><path fill-rule="evenodd" clip-rule="evenodd" d="M18.0671 24.6327c1.9644 0 3.5569-1.6082 3.5569-3.5919 0-1.9837-1.5925-3.5918-3.5569-3.5918-1.9645 0-3.5569 1.6081-3.5569 3.5918 0 .0754.0023.1503.0068.2245h-.0068v5.1633h1.3338v-2.5837c.609.4929 1.3819.7878 2.2231.7878zm0-1.347c1.2278 0 2.223-1.005 2.223-2.2449 0-1.2398-.9952-2.2449-2.223-2.2449-1.2278 0-2.2231 1.0051-2.2231 2.2449 0 1.2399.9953 2.2449 2.2231 2.2449z" fill="#fff"/></svg>