<svg width="35" height="35" fill="none" xmlns="http://www.w3.org/2000/svg"><circle cx="17.5002" cy="17.5" r="17.5" fill="#161616"/><path fill-rule="evenodd" clip-rule="evenodd" d="M14.0664 9.9404c-.2241-.629-.4426-1.2473-.618-1.879-.1801-.649-.3149-1.307-.4163-1.9715-.0565-.37-.048-.3808.3118-.5045.7276-.2499 1.4698-.4464 2.2323-.5613.3529-.0532.3704-.042.4182.3152.2015 1.5031.6282 2.941 1.2772 4.314.0735.1553.1132.4088.2821.4169.2148.0102.2427-.2585.32-.4208.6462-1.3581 1.0705-2.7815 1.2656-4.2707.0527-.4021.0643-.4117.4744-.3516.7636.1119 1.5018.3249 2.23.5703.3316.1117.3253.1253.2732.481-.1743 1.19-.4872 2.3443-.9002 3.4741-.0465.127-.1881.2786-.0494.3986.1094.0944.2493-.0282.367-.0765 1.1897-.488 2.2305-1.1964 3.1471-2.0867.0423-.041.0838-.0825.1259-.1236.3356-.3284.3346-.3271.7093-.0186.5573.4588 1.0924.9405 1.5598 1.4904.2361.2779.2336.2825-.0105.5348-1.7845 1.845-3.9388 3.0564-6.4449 3.6642-.1149.0278-.2318.0488-.3449.0825-.2709.0809-.2899.1384-.0826.3475.6857.6906 1.4429 1.2973 2.2579 1.8326.2542.1668.2637.1603.5602-.1135 1.2539-1.1574 2.6686-2.0772 4.229-2.7767.4573-.205.9286-.3809 1.3998-.5532.3195-.1168.3727-.0897.5043.224.2948.7024.5471 1.4193.7085 2.1646.0726.335.0681.3512-.2773.4717-.7552.2636-1.4811.5879-2.1737.9857-.448.2573-.8794.5391-1.2953.8436-.1151.0843-.2993.1533-.2803.31.0237.1952.2463.1811.3904.2263a14.5909 14.5909 0 003.2582.6241c.8357.0635.6734.0373.6072.7375-.0618.6546-.1907 1.3004-.3787 1.9324-.1002.3366-.1097.3495-.4635.3241a17.2495 17.2495 0 01-3.5717-.64c-2.9565-.8564-5.5137-2.3753-7.6929-4.522-.426-.4196-.3477-.4661-.8054-.0107-2.3139 2.3022-5.0621 3.8646-8.2401 4.6837a16.8066 16.8066 0 01-2.9263.4856c-.4563.0345-.4499.022-.578-.399-.2056-.6747-.308-1.3675-.388-2.0643-.0533-.4642-.0442-.4797.4534-.5141 1.0813-.0747 2.143-.2523 3.182-.5589.184-.0543.3667-.1137.5479-.1769.1565-.0547.1743-.1567.0529-.2585a6.5287 6.5287 0 00-.5286-.398c-.9802-.664-2.0208-1.2129-3.1461-1.5999-.3912-.1346-.3947-.1404-.3021-.5281.17-.7119.3872-1.4089.6893-2.0786.1681-.3726.174-.3821.5583-.251 1.2787.4364 2.4782 1.0298 3.6052 1.7691.7165.47 1.3826 1.0012 2.0196 1.5699.2827.2525.2825.2484.5965.0414a13.3648 13.3648 0 002.0227-1.6329c.0732-.0722.1489-.1427.2146-.2212.1045-.1248.0572-.2149-.0831-.265-.083-.0298-.1707-.0467-.2571-.0664-2.5475-.5793-4.7295-1.7985-6.5519-3.6475-.0413-.0419-.0817-.0845-.1235-.1259-.11-.1095-.131-.221-.0194-.345.5807-.6457 1.2024-1.2484 1.8913-1.7823.142-.11.2389-.0461.3417.0585.3504.3564.7136.6987 1.1089 1.0078.7474.5843 1.5597 1.0564 2.4453 1.4046.0788.031.1599.0807.3108.0077z" fill="#E6642B"/><path fill-rule="evenodd" clip-rule="evenodd" d="M17.532 29.7156c-.3694 0-.7395.0151-1.1078-.0045-.3263-.0173-.3726-.0777-.3737-.4072-.0039-1.1094-.0136-2.2191.0049-3.3282.006-.3582-.0982-.6372-.3197-.9184-1.2248-1.5542-2.4344-3.1202-3.6463-4.6844-.3098-.4-.3044-.4029.1681-.6273.6131-.2911 1.2138-.6041 1.7908-.9616.4366-.2705.4395-.2651.7412.1238a5796.9318 5796.9318 0 002.454 3.1611c.3274.4214.3361.4205.6539.0105a3925.454 3925.454 0 012.5073-3.2319c.2557-.3291.2611-.3334.6014-.1219.6515.4049 1.3306.7575 2.0258 1.0827.3022.1414.3114.1867.1088.4488-1.2554 1.6238-2.5086 3.2492-3.7766 4.8632-.1942.2472-.28.4909-.2768.7992.0118 1.1093.0054 2.2188.0038 3.3282-.0005.4-.0142.4334-.4074.4596-.3823.0255-.7677.0056-1.1516.0056l-.0001.0027z" fill="#E6642B"/></svg>