<svg width="35" height="35" fill="none" xmlns="http://www.w3.org/2000/svg"><circle cx="17.5002" cy="17.5" r="17.5" fill="#FF7800"/><path fill-rule="evenodd" clip-rule="evenodd" d="M16.7576 5C13.5778 5 11 7.5778 11 10.7576v.4294c.204.5068.6743 1.1615 1.7424 1.1615 1.0681 0 1.5384-.6547 1.7424-1.1615v-.2779c0-1.3389 1.0854-2.4243 2.4243-2.4243 1.3389 0 2.4242 1.0854 2.4242 2.4243v.2779c.2041.5068.6744 1.1615 1.7425 1.1615 1.068 0 1.5383-.6547 1.7424-1.1615v-.4294C22.8182 7.5778 20.2404 5 17.0606 5h-.303zm6.0606 7.8222c-.3464.2457-.9669.5869-1.7424.5869-.7756 0-1.3961-.3412-1.7425-.5869v7.2344c.3464-.2457.9669-.5869 1.7425-.5869.7755 0 1.396.3412 1.7424.5869v-7.2344zM11 20.0566v-7.2344c.3463.2457.9668.5869 1.7424.5869s1.3961-.3412 1.7424-.5869v7.2344c-.3463-.2457-.9668-.5869-1.7424-.5869s-1.3961.3412-1.7424.5869zm11.8182 1.6352c-.2041-.5068-.6744-1.1615-1.7424-1.1615-1.0681 0-1.5384.6547-1.7425 1.1615v.4294c0 1.3389-1.0853 2.4243-2.4242 2.4243s-2.4243-1.0854-2.4243-2.4243v-.4294c-.204-.5068-.6743-1.1615-1.7424-1.1615-1.0681 0-1.5384.6547-1.7424 1.1615v.5809c0 3.1798 2.5778 5.7576 5.7576 5.7576h.303a5.779 5.779 0 001.1735-.1197l1.3697 2.1678c.5063.8013 1.5663 1.0405 2.3677.5342.8013-.5064 1.0405-1.5664.5342-2.3677l-1.2691-2.0085c.9802-1.0324 1.5816-2.4278 1.5816-3.9637v-.5809z" fill="#fff"/><circle cx="24.2576" cy="26.2878" r="1.7424" fill="#fff"/></svg>