<svg width="35" height="35" fill="none" xmlns="http://www.w3.org/2000/svg"><circle cx="17.5" cy="17.5" r="17.5" fill="#2E3676"/><path d="M25.2163 9.8064c-2.4749-.0854-5.4276.4096-8.2951 1.3313l2.3895 1.4678c1.1778-.3243 2.3213-.512 3.3283-.4949 3.2942.017 3.8062 3.1064 1.1607 6.264-2.6285 3.1576-7.4247 5.3082-10.7018 5.1546-1.7068-.0854-4.7961-2.0141-1.5532-6.1958.2219-.2731.4609-.5632.734-.8193l.0682-3.4819c-2.0482 1.0583-3.8232 2.3384-5.0692 3.755-3.994 4.5743-2.5432 8.6195 2.8504 9.012 5.3935.3926 13.1254-2.4919 17.29-6.8955 4.1647-4.4207 3.1918-8.8925-2.2018-9.0974zM8.7626 24.6214c-.8363-.5803-1.263-1.7921-.8875-3.1405.6144.751 1.3142 1.4678 2.2188 1.8946 2.9016 1.3483 8.244-.2731 8.1757-.2219-2.5261 2.1335-8.005 2.509-9.507 1.4678zm18.4678-11.5039c.0341.1024-2.4408-1.6556-4.9669-1.758-1.7068-.0854-3.8232.3925-3.6184.2048.9387-.8193 3.2259-1.1436 5.2399-.9388 2.0823.2048 2.9187 1.0753 3.3454 2.492z" fill="#fff"/><path d="M13.4903 11.4616c.0171-.4949.5633-.8022.99-.5461l1.0923.6656c.4438-.1707.8705-.3243 1.3143-.4608l-3.2942-2.014c-.495-.3073-1.1435.034-1.1435.6315l-.1025 3.2941c.3585-.1877.734-.3755 1.1265-.5462l.0171-1.0241zm7.9367 3.7209c.4267.256.4097.8875-.0341 1.1265l-7.1516 3.8745c-.4438.2389-.9729-.0854-.9558-.5974l.1024-4.0793c-.4096.3072-.7851.6486-1.1265.99l-.1195 4.5742c-.0341.9729 1.0071 1.6044 1.8605 1.1436l9.2338-5.001c.8535-.4608.8876-1.6727.0513-2.1676l-3.9769-2.4408c-.4438.1195-.9046.2731-1.3484.4438l3.4648 2.1335z" fill="#fff"/><path d="M17.9454 13.0318c.4438-.1707.9046-.3073 1.3484-.4438l-2.3895-1.4679c-.4438.1366-.8876.2902-1.3143.4609l2.3554 1.4508zm-4.5572 2.4748l.0854-3.0381c-.3755.1707-.751.3584-1.1265.5462l-.0854 3.4819c.3414-.3414.7169-.6657 1.1265-.99z" fill="#fff"/></svg>