<svg width="35" height="35" fill="none" xmlns="http://www.w3.org/2000/svg"><circle cx="17.5" cy="17.5" r="17.5" fill="#fff"/><path d="M17.4884 0C7.8268 0 0 7.85 0 17.5116c0 1.6722.2323 3.298.6735 4.8308.0465.1858.1161.3948.1858.5806.0232-.0464 2.5548-4.2037 6.1082-10.0564 3.5534-5.8991 4.436-7.5945 5.0166-8.6629.627-1.1612 3.0424-1.6954 2.9728 2.2296-.0697 3.2515-.0697 13.6098 0 16.2575.0696 2.6941.8825 2.9263 1.556 2.8566.4645-.0464 2.16-1.3238 5.2721-7.8268 3.0889-6.5029 3.4141-6.9907 3.9482-7.3623.511-.3483 1.4864-.3251 1.6955.929.2554 1.4632 1.6954 8.57 2.9495 10.3816 1.1613 1.6954 1.9277 2.9263.4878 2.4618-.3716-.1161-.3949-.0232-1.1613-.72-.7664-.6967-2.8334-4.3662-3.2283-5.1327-.3948-.7664-.5341-1.6954-.929-1.2309-.3948.4645-4.4824 8.8952-5.6436 10.219-1.1613 1.3238-2.7173 1.7883-3.6463 1.858-1.5793.1393-4.4128-1.5793-4.3431-4.8308 0-.4645.8129-15.0498-2.7173-6.8049-1.556 3.6928-6.3172 9.6151-6.3172 9.6151C6.0153 31.8646 11.3802 35 17.5116 35 27.1732 35 35 27.1732 35 17.5116 35 7.85 27.15 0 17.4884 0z" fill="url(#paint0_linear)"/><defs><linearGradient id="paint0_linear" x1="27" y1="3.5" x2="8" y2="32.5" gradientUnits="userSpaceOnUse"><stop stop-color="#3ABBE1"/><stop offset=".4479" stop-color="#2AC990"/><stop offset=".724" stop-color="#27D558"/><stop offset="1" stop-color="#21E128"/></linearGradient></defs></svg>