<svg width="35" height="36" fill="none" xmlns="http://www.w3.org/2000/svg"><circle cx="17.5002" cy="17.5015" r="17.5" fill="#1F1F1F"/><path fill-rule="evenodd" clip-rule="evenodd" d="M12.16 11.4132L6.9585 6v12.4227c1.081 1.9607 2.4503 3.6 3.7275 5.1291.0989.1185.1974.2363.295.3536.1634.1961.3243.3915.483.5845l.0001.0001c1.0361 1.259 1.9845 2.4115 2.9845 2.9548 0 0 1.1433.5552 3.0337.5552s3.0694-.5552 3.0694-.5552c.8547-.3665 1.9956-1.7062 3.2702-3.2027.1338-.1571.269-.3159.4056-.4755l.1882-.2199c1.4649-1.7106 3.0113-3.5164 3.6261-5.0546V6.0694l-5.2015 5.3438s-1.6644-.9716-5.2014-.9716c-3.537 0-5.4789.9716-5.4789.9716zm3.6991 9.8568l-5.7169-4.4866 2.0986 3.5459 3.6183.9407zm9.9864-4.4866L20.1286 21.27l3.6183-.9407 2.0986-3.5459z" fill="#FCD405"/></svg>