<svg width="35" height="35" fill="none" xmlns="http://www.w3.org/2000/svg"><circle cx="17.5" cy="17.5" r="17.5" fill="#1432AF"/><path d="M3.4947 11.4658l-.4862 4.9186c-.0973.9576.6547 1.7915 1.6142 1.7915h6.3533c.1232 0 .2334-.0912.2528-.215l.1362-.7491c.0259-.1629-.0908-.3062-.2529-.3062H4.8042c-.1555 0-.2722-.1368-.2593-.2867l.1686-1.5309a.2609.2609 0 01.2593-.2345h4.8427c.1232 0 .227-.0847.2529-.2085l.1815-.886c.0324-.1629-.0843-.3127-.2528-.3127l-4.7066-.0586c-.1556 0-.2723-.1368-.2529-.2932l.1556-1.2117c.0195-.1303.1232-.228.2529-.228l6.3792-.0587c.1296 0 .2398-.1042.2528-.2345l.1102-1.0749c.013-.1564-.1037-.2867-.2593-.2867H5.1025c-.8299-.0065-1.53.632-1.6078 1.4658zm17.9512-1.0162l-.7844.2215c-.1232.0325-.2139.1237-.2399.2215l-.4797 2.7491c-.0713.0587-3.4684 2.8469-3.5073 2.8013l-2.0356-2.5667v-.0066l.1685-3.2312c.0065-.1108-.0583-.215-.162-.2606l-.6354-.2736c-.2009-.0847-.4343.0456-.4538.2671l-.4408 4.0716c-.0195.1955.0454.3844.175.5212l2.7099 2.8534c.3112.3257.8169.3713 1.1799.0977l4.0713-3.0684c.1815-.1172.2982-.2866.3241-.456l.5381-3.6808c.0259-.1954-.188-.3257-.4279-.2605zm8.1945-.3258h-5.6207c-.6419 0-1.1929.4495-1.329 1.0749l-1.0438 4.8795c-.1815.8469.4603 1.6482 1.329 1.6482h5.6207c.6418 0 1.1929-.4495 1.329-1.0749l1.0438-4.8795c.1815-.8469-.4668-1.6482-1.329-1.6482zm-.1103 1.8111l-.8233 3.8436c-.0648.2997-.3306.5147-.6353.5147H23.715c-.4149 0-.7196-.3844-.6354-.7883l.8234-3.8436c.0648-.2997.3306-.5147.6353-.5147h4.3565c.4149 0 .7196.3844.6353.7883zm-19.0079 7.4723l-2.9173-.0847c-.3047-.0065-.564.2085-.6094.5147l-.8622 5.8175c-.026.1824.1102.3453.2982.3453h.2917c.2074 0 .3825-.1498.4084-.3518l.3307-2.1303 2.5348-.0716a1.2675 1.2675 0 001.303-1.0619l.2853-1.6678c.1167-.671-.389-1.2899-1.0632-1.3094zm-.1686 1.7394l-.1361.899c-.0454.3192-.3177.5538-.6418.5538H8.3569c-.402 0-.7002-.3583-.6418-.7557l.1556-.9642c.0518-.3257.3436-.5668.6742-.5472l1.1993.0651c.3825.0196.6678.3648.6094.7492zm2.4182-1.4332l-.6029 5.6807c-.0195.189.1231.3583.3176.3583l2.9562.0652c.1816.0065.3307-.1433.3307-.3257v-.1173c0-.1759-.1362-.3192-.3112-.3257l-1.7828-.0717c-.188-.0065-.3242-.1694-.4409-.3518l.4279-4.8078c.1426-.1759.013-.3388-.1621-.3518l-.3825-.0391c-.175-.0195-.3306.1108-.35.2867zm9.6984 6.0456l-1.3354-6.417-1.3161.0782s-2.9562 6.0326-3.3257 6.3388h1.4262l.3436-.8991c.0454-.1237.1686-.2084.3047-.2084h2.3403c.1816 0 .3242.1433.3242.3257v.7818h1.2382zm-2.0032-2.1173h-1.4068c-.1037 0-.1621-.1173-.1102-.202l1.2771-1.9934c.0649-.1043.2334-.0652.2399.0651l.1297 1.9935c.0065.0782-.0519.1368-.1297.1368zm2.4311-4.2997l1.3874 3.342-.2918 3.1987 1.167-.0456.2722-3.0097 2.6645-3.4854h-1.2317l-1.705 2.1238-1.0632-2.1238h-1.1994z" fill="#fff"/></svg>