<svg width="35" height="35" fill="none" xmlns="http://www.w3.org/2000/svg"><circle cx="17.5" cy="17.5" r="17.5" fill="#032443"/><path fill-rule="evenodd" clip-rule="evenodd" d="M7 26h6.423c.08-.497-.192-.668-.488-.854-.305-.191-.636-.399-.636-.997l1.767-3.196h6.905l1.927 3.197c.083.612-.18.77-.476.945-.273.162-.571.34-.648.905H29l-8.832-15.813c-.092-1.254.185-1.347.5-1.451.233-.078.487-.162.624-.736h-7.066c0 .585.273.661.556.74.367.103.75.21.568 1.447L7 26zm10.599-12.449l-2.41 4.542h4.979l-2.57-4.542z" fill="url(#paint0_linear)" stroke="url(#paint1_linear)" stroke-width=".5"/><defs><linearGradient id="paint0_linear" x1="18" y1="8" x2="18" y2="26" gradientUnits="userSpaceOnUse"><stop stop-color="#A8CBE7"/><stop offset=".224" stop-color="#CEE8FE"/><stop offset=".51" stop-color="#CDE7F4"/><stop offset=".828" stop-color="#CFE7F8"/><stop offset="1" stop-color="#A8CBE7"/></linearGradient><linearGradient id="paint1_linear" x1="18" y1="8" x2="18" y2="26" gradientUnits="userSpaceOnUse"><stop stop-color="#88ADCB"/><stop offset=".224" stop-color="#9CBCD8"/><stop offset=".51" stop-color="#95BED2"/><stop offset=".828" stop-color="#A1C4DD"/><stop offset="1" stop-color="#85ACCC"/></linearGradient></defs></svg>