<svg width="35" height="35" fill="none" xmlns="http://www.w3.org/2000/svg"><circle cx="17.5002" cy="17.5" r="17.5" fill="#1F1F1F"/><path d="M16.2549 15.2637s.4399.1466 1.2463.1466 1.2463-.1466 1.2463-.1466v14.3691h-2.4926V15.2637z" fill="#FDAF17"/><path fill-rule="evenodd" clip-rule="evenodd" d="M17.5006 13.3576c2.3078 0 4.1788-1.8709 4.1788-4.1788S19.8084 5 17.5006 5c-2.3079 0-4.1788 1.871-4.1788 4.1788 0 2.3079 1.8709 4.1788 4.1788 4.1788zm0-2.0525c1.1742 0 2.126-.9519 2.126-2.126 0-1.1743-.9518-2.1261-2.126-2.1261s-2.1261.9518-2.1261 2.126.9519 2.1261 2.1261 2.1261z" fill="#FDAF17"/></svg>