<svg width="35" height="35" fill="none" xmlns="http://www.w3.org/2000/svg"><circle cx="17.5" cy="17.5" r="17.5" fill="#000"/><path d="M7.4392 15H7v14h.4392v-1.8861h5.5482v-1.7475H8.7186V23.354h3.6491v-1.7606H8.7186v-1.9466h4.2688v-1.7607H7.4392V15zm11.776 8.5597l-1.5766-2.5126-2.0208-3.1132-.0201-.033h-1.6751v9.2278h1.8572v-5.6719l1.3862 2.2098 2.2312 3.4621h1.6885v-9.2278h-1.8705v5.6588zm2.6354-5.6588v1.7738h2.1461v7.454h1.8706v-7.454H28v-1.7738h-6.1494z" fill="#77BF1E"/><path d="M10.6722 10.0669l1.558 2.4522V7h1.8485v9h-1.6686l-2.2033-3.3766-1.3699-2.1553V16H7V7h1.6554l.0198.0305 1.997 3.0364zM21.1788 16h-6.067V7h6.067v1.7172h-4.2185v1.8985h3.6062v1.7172h-3.6062v1.9627h4.2185V16zM24.0439 8.73h-2.1208V7H28v1.73h-2.1076V16h-1.8485V8.73z" fill="#fff"/></svg>