<svg width="35" height="35" fill="none" xmlns="http://www.w3.org/2000/svg"><circle cx="17.5002" cy="17.4995" r="17.5" fill="url(#paint0_radial)"/><mask id="a" mask-type="alpha" maskUnits="userSpaceOnUse" x="0" y="-1" width="36" height="36"><circle cx="17.5002" cy="17.4995" r="17.5" fill="url(#paint1_radial)"/></mask><g mask="url(#a)"><path d="M27.6483 8.6455c.2443.1274.478-.2018.2762-.393-1.5295-1.3913-4.5352-3.3775-9.2404-3.3775-5.9585 0-10.4512 3.3244-10.4512 5.2787 0 2.1986 4.3016 3.3669 4.4927 6.7126.0107.1274.1063.223.2337.223h7.2011c.17 0 .2762-.1593.2231-.3186-.6479-1.8587-6.6913-3.0377-6.6913-7.2012 0-3.6324 8.6456-3.728 13.9561-.924z" fill="url(#paint2_linear)"/><path d="M27.6469 25.5542c.2443-.1275.4779.2018.2761.3929-1.5294 1.3914-4.5352 3.3776-9.2404 3.3776-5.9584 0-10.4512-3.3245-10.4512-5.2788 0-2.1985 4.3016-3.4624 4.4928-6.7125.0106-.1275.1168-.223.2336-.223h7.2012c.1699 0 .2761.1593.223.3186-.6479 1.8587-6.6913 3.0376-6.6913 7.2011 0 3.6324 8.6456 3.728 13.9562.9241z" fill="url(#paint3_linear)"/><path d="M8.3168 9.4741c-.0956.2974-.0956.4886-.0956.6798 0 2.2517 4.4927 3.42 4.4927 6.9356 0 3.42-4.4927 4.6945-4.4927 6.9356 0 .1912 0 .393.0956.5841-.5842-2.1454 7.2224-4.0041 10.8335-5.9584.0107 0 .0107-.0106.0213-.0106.7753-.4886 1.2639-.9772 1.2639-1.5613 0-.5842-.4886-1.0728-1.2639-1.5614-.0106 0-.0106-.0106-.0213-.0106-3.6111-1.9224-11.4177-3.7811-10.8335-6.0328z" fill="url(#paint4_linear)"/><path d="M18.5133 18.2792c-.3505.5416.3611.0955.8178-.1594l.0106-.0106c.4992-.308.8072-.6266.8072-.9984 0-.3717-.3186-.6266-.8072-.9984l-.0106-.0106c-.4355-.2761-1.4126-1.1152-1.2002-.3717.2018.7328 1.4551.924.3824 2.5491z" fill="url(#paint5_linear)"/></g><defs><linearGradient id="paint2_linear" x1="18.117" y1="17.0893" x2="18.117" y2="4.875" gradientUnits="userSpaceOnUse"><stop offset=".135" stop-color="#232157"/><stop offset=".595" stop-color="#28AAE2"/></linearGradient><linearGradient id="paint3_linear" x1="18.1156" y1="17.2806" x2="18.1156" y2="29.6544" gradientUnits="userSpaceOnUse"><stop stop-color="#572614"/><stop offset="1" stop-color="#FAA31D"/></linearGradient><linearGradient id="paint4_linear" x1="14.3283" y1="24.6092" x2="14.3283" y2="9.4741" gradientUnits="userSpaceOnUse"><stop stop-color="#908F8F"/><stop offset=".07" stop-color="#6A1C24"/><stop offset=".25" stop-color="#DD1F26"/><stop offset=".75" stop-color="#DD1F26"/><stop offset=".93" stop-color="#6A1C24"/></linearGradient><linearGradient id="paint5_linear" x1="19.125" y1="18.5355" x2="19.125" y2="15.4392" gradientUnits="userSpaceOnUse"><stop stop-color="#DD1F26"/><stop offset="1" stop-color="#F9B8B8"/></linearGradient><radialGradient id="paint0_radial" cx="0" cy="0" r="1" gradientUnits="userSpaceOnUse" gradientTransform="rotate(90 .0003 17.4999) scale(17.5)"><stop stop-color="#011E67"/><stop offset="1" stop-color="#000B27"/></radialGradient><radialGradient id="paint1_radial" cx="0" cy="0" r="1" gradientUnits="userSpaceOnUse" gradientTransform="rotate(90 .0003 17.4999) scale(17.5)"><stop stop-color="#000B27"/><stop offset="1" stop-color="#000B27"/></radialGradient></defs></svg>