<svg width="35" height="35" fill="none" xmlns="http://www.w3.org/2000/svg"><circle cx="17.5002" cy="17.5" r="17.5" fill="#1F1F1F"/><path d="M24.6084 15.77l5.7476 5.7994-5.7476 5.7994-5.7476-5.7994 5.7476-5.7994z" fill="#13FF74"/><path d="M24.6084 21.5698h5.7476l-5.7476 5.7994-5.7476-5.7994h5.7476z" fill="#00BB75"/><path d="M24.6084 15.77v11.5988l-5.7476-5.7994 5.7476-5.7994z" fill="#00C178"/><path d="M21.9159 21.5698h2.6925v5.7994l-5.7476-5.7994h3.0551z" fill="#009169"/><path d="M23.1587 21.5695s.4142-.1554.8803-.5696c.4142-.4143.5695-.8803.5695-.8803s.1554.4143.5696.8803c.3625.4142.8285.5696.8285.5696s-.4142.1035-.8803.5696c-.4142.466-.5695.8802-.5695.8802s-.0518-.3107-.5178-.7767c-.3625-.5178-.8803-.6731-.8803-.6731z" fill="#fff"/><path d="M24.6086 17.7378l3.8317 3.8317-3.8317 3.8318-3.8317-3.8318 3.8317-3.8317zm0 1.3981l-2.4337 2.4336 2.4337 2.4337 2.4337-2.4337-2.4337-2.4336z" fill="#000"/><path d="M17.3598 23.1748l4.2977 4.3495H13.062l4.2978-4.3495z" fill="#13FF74"/><path d="M17.3598 23.1748v4.3495H13.062l4.2978-4.3495z" fill="#00C178"/><path d="M17.2562 5l7.5081 7.6117-7.5081 7.6117-7.5082-7.6117L17.2563 5z" fill="#13FF74"/><path d="M17.2562 12.6118h7.5081l-7.5081 7.6117-7.5082-7.6117h7.5082z" fill="#00BB75"/><path d="M17.2562 5v15.2234L9.748 12.6117 17.2563 5z" fill="#00C178"/><path d="M13.7351 12.6118h3.5211v7.6117L9.748 12.6118h3.9871z" fill="#009169"/><path d="M15.3921 12.6121s.5696-.2071 1.0874-.7249c.5696-.5696.7249-1.0874.7249-1.0874s.2071.5696.7249 1.0874c.5178.5178 1.0874.7249 1.0874.7249s-.5696.1554-1.0874.7249c-.5696.6214-.7249 1.0874-.7249 1.0874s-.1036-.3624-.6731-1.0356c-.4661-.6213-1.1392-.7767-1.1392-.7767z" fill="#fff"/><path d="M17.2565 7.7959l4.8155 4.8156-4.8155 4.8155-4.8156-4.8155 4.8156-4.8156zm0 1.4498l-3.3657 3.3658 3.3657 3.3657 3.3657-3.3657-3.3657-3.3658z" fill="#000"/><path d="M9.7476 15.77l5.7476 5.7994-5.7476 5.7994L4 21.5694 9.7476 15.77z" fill="#13FF74"/><path d="M9.7476 21.5698h5.7476l-5.7476 5.7994L4 21.5698h5.7476z" fill="#00BB75"/><path d="M9.7476 15.77v11.5988L4 21.5694 9.7476 15.77z" fill="#00C178"/><path d="M7.055 21.5698h2.6926v5.7994L4 21.5698h3.055z" fill="#009169"/><path d="M8.3496 21.5695s.4142-.1554.8803-.5696c.4142-.4143.5695-.8803.5695-.8803s.1554.4143.5696.8803c.4143.4142.8803.5696.8803.5696s-.4142.1035-.8803.5696c-.4142.466-.5695.8802-.5695.8802s-.0518-.3107-.5178-.7767c-.466-.5178-.932-.6731-.932-.6731z" fill="#fff"/><path d="M9.7477 17.7378l3.8318 3.8317-3.8317 3.8318-3.8318-3.8318 3.8317-3.8317zm0 1.3981l-2.4336 2.4336 2.4337 2.4337 2.4336-2.4337-2.4337-2.4336z" fill="#000"/></svg>