<svg width="35" height="35" fill="none" xmlns="http://www.w3.org/2000/svg"><circle cx="17.5" cy="17.5" r="17.5" fill="#000"/><path d="M15.4242 21.292l-2.6405.7393v.9506l.2112 1.3731 1.4787.4225 2.0069-.4225.4224-1.3731-1.4787-1.6899z" fill="#CC5700"/><path d="M27.9932 8.6177l-2.4293.7393-.9506 5.598 2.7461-.845.6338-5.4923z" fill="#F36A00"/><path d="M27.9931 8.6178s-9.5059-6.2317-18.167-1.2675l15.6321 2.0069 2.5349-.7394zM30 21.7143c0-4.9643-4.9642-6.5486-4.9642-6.5486l-8.0273-3.4855-2.8518 1.3731 7.7104 16.0545C22.5009 29.0022 30 28.0516 30 21.7143zM9.8265 19.2856L6.2354 20.87l6.2316 1.4787 2.7462-.9506-5.3867-2.1125z" fill="#E56100"/><path d="M13.8398 12.3145h10.7735v2.9574H13.8398v-2.9574z" fill="url(#paint0_linear)"/><path d="M10.6641 22.7974l10.216-3.4204.939 2.8045-10.2161 3.4203-.9389-2.8044z" fill="url(#paint1_linear)"/><g filter="url(#filter0_i)"><path d="M6.024 13.4766c0-7.6051 10.1396-8.5557 19.3287-4.0137l-.8449 5.2811-5.7036-.4225c-.2113-1.2677-1.5844-1.7955-1.5844-1.7955s-2.5349-1.0559-2.3236 1.2674c.2112 2.3234 13.8364 2.0065 10.9846 10.9847-2.1124 6.1257-11.8296 6.6539-19.8569 1.4787l.4225-5.1755 6.4429 1.0563v1.5843c.2113 1.2671 3.6459 1.3727 4.0137 0 .3168-4.1196-10.4997-2.1128-10.879-10.2453z" fill="url(#paint2_linear)"/></g><path fill-rule="evenodd" clip-rule="evenodd" d="M12.2075 6.7061c3.7392-.6299 8.6169.2827 13.239 2.5673l.1396.069-.9003 5.6265-6.0626-.4491-.0273-.1637c-.0937-.5623-.4463-.9691-.7935-1.2418a3.062 3.062 0 00-.4627-.2992 2.5857 2.5857 0 00-.1463-.0712 1.7342 1.7342 0 00-.0386-.0166l-.009-.0037-.0016-.0006-.0002-.0001-.0025-.001-.0026-.001-.0008-.0004-.0042-.0017-.0186-.0073a3.6287 3.6287 0 00-.3427-.1103c-.2244-.06-.5112-.1138-.7845-.1019-.2742.012-.5066.0882-.6618.2582-.1535.1681-.2694.4696-.2196 1.0166.0166.1823.1706.3835.5475.6086.367.2192.8875.4266 1.5177.6449.3615.1252.7575.2533 1.1754.3885 1.0223.3308 2.1756.704 3.274 1.1801 1.5499.6719 3.0363 1.5661 3.9497 2.8841.9226 1.3311 1.2409 3.0648.5113 5.3616l-.0008.0025-.0008.0024c-1.0938 3.1717-4.1492 4.8648-7.8958 5.1191-3.7483.2543-8.229-.9231-12.2753-3.5317l-.1064-.0686.4514-5.5299 6.8461 1.1223v1.7447c.0423.2118.222.4057.5426.5552.3239.151.7535.2363 1.1973.2426.4436.0062.8828-.0666 1.226-.2153.337-.146.5533-.3513.6274-.6001.0306-.4546-.089-.8167-.3209-1.1261-.2398-.3201-.6073-.5937-1.0819-.8459-.4738-.2517-1.0394-.4745-1.663-.7005a82.605 82.605 0 00-.7022-.2497c-.4152-.1463-.8464-.2982-1.2763-.4615-1.3621-.5172-2.7731-1.1697-3.8674-2.2202-1.1017-1.0575-1.8719-2.508-1.9693-4.5949l-.0002-.005v-.0049c0-1.9523.6526-3.4932 1.7902-4.624 1.1338-1.127 2.7333-1.831 4.6045-2.1463zm5.0912 5.6237l.0034.0013.014.0057c.0118.0049.0284.0119.0492.0212.0417.0185.1002.0461.1707.083a3.482 3.482 0 01.5274.3411c.3611.2836.7622.7222.9153 1.3404l5.3513.3964.7896-4.9353c-4.5248-2.2067-9.2511-3.0658-12.842-2.4609-1.8123.3053-3.322.981-4.3767 2.0293-1.0498 1.0434-1.6645 2.4716-1.6656 4.3195.0933 1.9766.8171 3.3235 1.8395 4.3049 1.0306.9893 2.375 1.6175 3.7249 2.13.4264.1619.8472.3102 1.2583.455.2417.0852.4801.1692.7142.254.6264.227 1.2156.4581 1.7172.7246.5008.2661.9293.5752 1.2219.9656.297.3965.446.8666.4024 1.4323l-.0015.0196-.005.0189c-.1151.4294-.4638.7193-.8727.8965-.4109.178-.9124.2569-1.3999.25-.4873-.0069-.9789-.0998-1.3698-.2821-.3865-.1802-.7144-.4686-.7837-.8843l-.0029-.0173v-1.4224l-6.0397-.9901-.3936 4.8206c3.9527 2.5186 8.2986 3.6422 11.9114 3.3971 3.6459-.2474 6.5047-1.8803 7.5241-4.8328.6954-2.1911.3798-3.7839-.4566-4.9906-.8458-1.2204-2.2442-2.0755-3.7705-2.7371-1.0789-.4677-2.1988-.83-3.2142-1.1585-.4235-.137-.8289-.2681-1.2054-.3986-.6323-.2189-1.1887-.4381-1.5961-.6814-.3975-.2373-.7154-.5344-.7517-.933-.0559-.6146.066-1.0524.3284-1.3398.2606-.2854.6224-.3809.9554-.3954.3341-.0145.6678.0505.9121.1159.1234.033.2269.0669.3.0927a3.222 3.222 0 01.086.0317c.0102.0039.0181.0071.0238.0094l.0063.0026.0003.0001.0005.0002z" fill="#C78B3A"/><path d="M24.1909 10.6238a.845.845 0 11-1.6899 0 .845.845 0 111.6899 0zM21.6563 9.3567a.845.845 0 11-1.69 0 .845.845 0 011.69 0zM18.9097 8.5115a.845.845 0 01-.845.845.845.845 0 110-1.69.845.845 0 01.845.845zM16.1636 8.0891a.845.845 0 01-.845.845.845.845 0 110-1.69.845.845 0 01.845.845zM13.417 8.5115a.845.845 0 11-1.69 0 .845.845 0 011.69 0zM10.8823 9.3567a.845.845 0 11-1.69 0 .845.845 0 011.69 0zM8.77 11.0466a.845.845 0 11-1.69 0 .845.845 0 011.69 0zM8.3477 13.7927a.845.845 0 11-1.69 0 .845.845 0 011.69 0zM9.4033 16.5393a.845.845 0 11-1.69 0 .845.845 0 111.69 0zM12.1501 18.1231a.7393.7393 0 11-1.4787.0001.7393.7393 0 011.4787-.0001zM15.1076 19.3907a.7393.7393 0 11-1.4787 0 .7393.7393 0 011.4787 0zM18.2761 21.0811a.7394.7394 0 11-1.4788 0 .7394.7394 0 011.4788 0zM19.5436 23.8268a.7394.7394 0 11-1.4786-.0002.7394.7394 0 011.4786.0002zM16.5861 25.9395a.7393.7393 0 11-1.4787 0 .7393.7393 0 011.4787 0zM13.4177 25.5172a.7393.7393 0 11-1.4787 0 .7393.7393 0 011.4787 0zM11.7272 23.1935a.7394.7394 0 11-1.4786-.0002.7394.7394 0 011.4786.0002zM8.5588 22.5592a.7393.7393 0 11-1.4787 0 .7393.7393 0 011.4787 0zM8.3477 25.6228a.845.845 0 11-1.69 0 .845.845 0 111.69 0zM11.0938 27.1008a.845.845 0 11-1.69 0 .845.845 0 011.69 0zM15.1074 28.3684a.845.845 0 11-1.6899 0 .845.845 0 111.6899 0zM19.3325 28.3684a.845.845 0 11-1.6899 0 .845.845 0 111.6899 0zM23.3462 26.8904a.845.845 0 11-1.69 0 .845.845 0 011.69 0zM25.2471 23.9324a.845.845 0 11-1.69 0 .845.845 0 011.69 0zM25.2471 20.3411a.845.845 0 01-.845.8449.845.845 0 110-1.6899.845.845 0 01.845.845zM22.501 18.2288a.845.845 0 01-.845.8449.845.845 0 110-1.6899.845.845 0 01.845.845zM19.1206 17.1731a.845.845 0 11-1.6899 0 .845.845 0 111.6899 0zM16.1636 16.1169a.845.845 0 01-.845.845.845.845 0 110-1.6899.845.845 0 01.845.8449zM14.0505 13.6871a.7394.7394 0 11-1.4788 0 .7394.7394 0 011.4788 0zM15.3185 11.1524a.7393.7393 0 11-1.4787.0001.7393.7393 0 011.4787-.0001zM18.487 11.3639a.7393.7393 0 11-.7393-.7394c.4083 0 .7393.331.7393.7394zM20.8112 13.0538a.7394.7394 0 11-1.4788 0 .7394.7394 0 011.4788 0zM23.9797 13.4762a.7393.7393 0 01-1.4787 0 .7393.7393 0 111.4787 0z" fill="#F1F986"/><defs><linearGradient id="paint0_linear" x1="19.2266" y1="12.3145" x2="19.2266" y2="15.2719" gradientUnits="userSpaceOnUse"><stop/><stop offset="1" stop-opacity="0"/></linearGradient><linearGradient id="paint1_linear" x1="15.7721" y1="21.0872" x2="16.711" y2="23.8916" gradientUnits="userSpaceOnUse"><stop/><stop offset="1" stop-opacity="0"/></linearGradient><linearGradient id="paint2_linear" x1="8.242" y1="8.4064" x2="22.5009" y2="28.1577" gradientUnits="userSpaceOnUse"><stop stop-color="#DA4700"/><stop offset="1" stop-color="#FFBE00"/></linearGradient><filter id="filter0_i" x="6.0239" y="6.7231" width="20.7492" height="23.5655" filterUnits="userSpaceOnUse" color-interpolation-filters="sRGB"><feFlood flood-opacity="0" result="BackgroundImageFix"/><feBlend mode="normal" in="SourceGraphic" in2="BackgroundImageFix" result="shape"/><feColorMatrix in="SourceAlpha" type="matrix" values="0 0 0 0 0 0 0 0 0 0 0 0 0 0 0 0 0 0 127 0" result="hardAlpha"/><feOffset dx=".5" dy=".5"/><feGaussianBlur stdDeviation=".5"/><feComposite in2="hardAlpha" operator="arithmetic" k2="-1" k3="1"/><feColorMatrix type="matrix" values="0 0 0 0 0 0 0 0 0 0 0 0 0 0 0 0 0 0 0.46 0"/><feBlend mode="normal" in2="shape" result="effect1_innerShadow"/></filter></defs></svg>