<svg width="35" height="35" fill="none" xmlns="http://www.w3.org/2000/svg"><circle cx="17.5002" cy="17.5" r="17.5" fill="#00AEFF"/><path fill-rule="evenodd" clip-rule="evenodd" d="M24.9509 18.9068l-4.523.1179-.1631 4.9127-.244 2.9084-3.9407-.0394v-2.7901l-.3257-4.874-4.7264.1965-.1628-4.7164 6.9611-.0393 7.206-.1963.1221.629-.2035 3.891zm3.452 2.9232l.7807-5.2658-3.2667-6.6082-2.2192.734-2.8964-2.998L15.6849 5l-1.12 3.993-.7905-2.0965-3.93 3.7064-2.1985 3.709-.0971 3.8431L6 17.4434l1.0557 6.157 2.3942 3.965 5.649 1.8691 4.6269.1625 7.9784-2.8149L30 21.3016l-1.5971.5284z" fill="#fff"/></svg>